<?xml version="1.0" standalone="no"?>
<!DOCTYPE svg PUBLIC "-//W3C//DTD SVG 20010904//EN"
 "http://www.w3.org/TR/2001/REC-SVG-20010904/DTD/svg10.dtd">
<svg version="1.0" xmlns="http://www.w3.org/2000/svg"
 width="300.000000pt" height="200.000000pt" viewBox="0 0 300.000000 200.000000"
 preserveAspectRatio="xMidYMid meet">
<metadata>
Created by potrace 1.10, written by Peter Selinger 2001-2011
</metadata>
<g transform="translate(0.000000,200.000000) scale(0.100000,-0.100000)"
fill="#000000" stroke="none">
<path d="M682 1345 c-84 -43 -132 -125 -132 -225 0 -60 15 -102 58 -165 30
-44 33 -54 27 -95 -3 -25 -8 -53 -11 -62 -4 -14 1 -18 24 -18 27 0 30 3 36 44
6 38 11 44 35 49 46 9 90 54 102 103 10 40 14 44 43 44 42 0 56 16 56 62 l0
38 -48 0 -48 0 0 -47 c1 -37 -3 -48 -16 -51 -15 -3 -18 4 -18 47 l0 51 -46 0
-45 0 3 -47 3 -48 43 -3 c32 -2 42 -7 42 -20 0 -27 -30 -63 -64 -77 -30 -13
-32 -12 -46 15 -8 15 -28 48 -43 73 -22 37 -28 58 -28 106 -1 117 72 191 187
191 105 0 175 -63 190 -170 3 -25 17 -64 31 -88 14 -24 23 -44 21 -45 -40 -21
-43 -26 -48 -83 l-5 -59 -52 -5 c-63 -7 -70 -13 -79 -67 -6 -41 -5 -43 19 -43
20 0 27 6 32 31 6 24 11 30 26 26 11 -3 35 -1 55 5 39 10 64 52 64 105 0 19 7
31 22 38 43 20 44 38 5 102 -21 34 -37 74 -37 90 0 74 -45 148 -116 189 -35
21 -63 28 -118 31 -62 4 -78 1 -124 -22z"/>
<path d="M707 1233 c-4 -3 -7 -24 -7 -45 l0 -38 45 0 45 0 0 45 0 45 -38 0
c-21 0 -42 -3 -45 -7z"/>
<path d="M825 1195 l0 -45 48 0 c45 0 47 1 47 29 0 51 -9 61 -54 61 l-41 0 0
-45z"/>
<path d="M1708 1229 c-36 -21 -16 -79 27 -79 42 0 59 44 29 74 -18 18 -32 20
-56 5z"/>
<path d="M1240 1215 c0 -8 9 -15 20 -15 19 0 20 -7 20 -156 0 -147 -1 -156
-20 -161 -11 -3 -20 -10 -20 -17 0 -7 28 -11 85 -11 57 0 85 4 85 11 0 7 -9
14 -20 17 -19 5 -20 14 -20 157 0 143 1 152 20 157 11 3 20 12 20 19 0 11 -19
14 -85 14 -69 0 -85 -3 -85 -15z"/>
<path d="M1478 1108 c-40 -11 -48 -22 -23 -32 12 -4 15 -25 15 -101 0 -78 -3
-95 -15 -95 -8 0 -15 -6 -15 -12 0 -9 22 -13 75 -13 55 -1 75 3 75 12 0 7 -9
13 -20 13 -18 0 -20 7 -20 79 0 88 13 112 48 90 28 -17 54 4 50 40 -4 37 -49
41 -76 7 -25 -32 -34 -33 -30 -4 4 27 -12 30 -64 16z"/>
<path d="M1713 1111 c-53 -9 -61 -16 -34 -31 19 -10 21 -20 21 -101 0 -83 -2
-91 -20 -96 -43 -11 -11 -27 58 -28 54 -1 72 2 72 12 0 7 -7 13 -15 13 -12 0
-15 20 -15 120 0 90 -3 120 -12 119 -7 -1 -32 -5 -55 -8z"/>
<path d="M1895 1113 c-11 -2 -30 -6 -42 -9 -26 -5 -31 -24 -8 -24 12 0 15 -18
15 -100 0 -82 -3 -100 -15 -100 -8 0 -15 -6 -15 -12 0 -9 21 -13 70 -13 46 0
70 4 70 11 0 7 -7 14 -15 18 -12 4 -15 24 -15 90 0 82 1 86 24 92 56 14 61 6
64 -94 2 -77 0 -92 -13 -92 -8 0 -15 -6 -15 -13 0 -10 19 -13 70 -13 49 1 70
5 70 14 0 6 -7 12 -15 12 -12 0 -15 17 -15 95 0 88 -2 98 -25 120 -30 31 -82
33 -119 4 l-26 -20 0 20 c0 21 -6 23 -45 14z"/>
<path d="M2225 1108 c-49 -26 -62 -78 -20 -78 17 0 25 5 25 18 0 24 19 42 46
42 24 0 34 -17 34 -58 0 -25 -5 -29 -52 -40 -61 -14 -90 -39 -90 -76 0 -58 69
-86 121 -50 22 16 24 16 33 0 12 -22 61 -20 89 4 24 19 24 19 2 20 -20 0 -21
6 -25 96 -3 86 -5 98 -27 115 -26 21 -103 26 -136 7z m85 -162 c0 -58 -62 -80
-68 -24 -3 21 3 30 25 42 40 22 43 20 43 -18z"/>
</g>
</svg>
